<?xml version="1.0" encoding="UTF-8"?>
<svg width="103px" height="40px" viewBox="0 0 103 40" version="1.1" 
  xmlns="http://www.w3.org/2000/svg" 
  xmlns:xlink="http://www.w3.org/1999/xlink">
  <defs>
    <polygon id="path-1" points="0.15790649 0.0721732878 19.7442295 0.0721732878 19.7442295 21.0752688 0.15790649 21.0752688"></polygon>
    <polygon id="path-3" points="0 39.9167742 102.324946 39.9167742 102.324946 0 0 0"></polygon>
  </defs>
  <g stroke="none" stroke-width="1" fill="none" fill-rule="evenodd">
    <g>
      <path d="M73.4015484,29.2812043 C73.0972473,27.6055054 72.8832688,25.9033548 72.4568172,24.2562581 C72.1516559,23.0775484 71.372086,22.1629247 70.0852043,21.8506667 C68.2929462,21.4156129 66.7146667,22.391957 66.0329462,24.4900215 C65.2217634,26.9865806 65.1178925,29.5723871 65.5224086,32.1429247 C65.7131613,33.3553978 66.0544516,34.6216344 66.6566022,35.6753978 C67.8402581,37.7472258 70.4652043,37.7220645 71.7944516,35.7356129 C72.0888602,35.295828 72.3688602,34.7992688 72.4772473,34.2906667 C72.8256344,32.656043 73.0905806,31.0035699 73.4015484,29.2812043 M73.3443441,36.7541075 C73.1409032,36.8665806 73.0335914,36.8947527 72.9733763,36.9637849 C69.0656344,41.4536774 62.1860645,40.5373333 59.7611183,35.1177634 C58.0350968,31.260129 58.0923011,27.2852903 59.8776774,23.4665806 C62.1531613,18.5990538 68.4127312,17.3895914 72.515957,20.9070108 C72.6757419,21.044 72.8348817,21.1820645 73.1589677,21.4616344 L73.1589677,15.3674409 L73.1589677,9.33131183 L79.6454194,9.33131183 C79.1933763,19.2276559 78.9355269,29.1569032 79.4221935,39.1381935 L73.196172,39.1381935 C73.244129,38.3689462 73.2912258,37.6100215 73.3443441,36.7541075" fill="#990D15"></path>
      <path d="M11.4318495,19.008086 C10.1927097,22.2194839 9.07206452,25.124 7.90023656,28.1616344 L14.7636774,28.1616344 C13.6456129,25.0902366 12.5937849,22.2005591 11.4318495,19.008086 L11.4318495,19.008086 Z M18.4053978,39.1072258 C17.6318495,36.7633548 16.8441075,34.4304516 16.0983011,32.0846452 C15.8832473,31.408086 15.5398065,31.1076559 14.7967957,31.1190538 C12.4335699,31.1551828 10.0688387,31.1510968 7.70539785,31.1130323 C6.96389247,31.1007742 6.62324731,31.3953978 6.41593548,32.084 C5.70668817,34.4390538 4.94862366,36.7794839 4.21529032,39.1065806 L2.15053763e-05,39.1065806 C0.697010753,37.4717419 1.38496774,35.9532473 1.99787097,34.4050753 C5.00926882,26.7984086 8.01313978,19.1887312 10.9789462,11.5642151 C11.2486237,10.8706667 11.518086,10.6291613 12.2748602,10.7300215 C13.081957,10.8375484 13.9195914,10.6973333 14.7370108,10.7590538 C15.0432473,10.7822796 15.5047527,11.0009892 15.5998065,11.2455054 C19.1789462,20.4704516 22.7236774,29.7089462 26.2714194,38.9461505 C26.2828172,38.975828 26.2675484,39.0156129 26.2602366,39.1072258 L18.4053978,39.1072258 Z" fill="#990D15"></path>
      <g transform="translate(82.580645, 18.841505)">
        <mask id="mask-2" fill="white">
          <use xlink:href="#path-1"></use>
        </mask>
        <g></g>
        <path d="M11.0384731,10.2186667 C7.46341935,10.4623226 5.81524731,12.283828 6.20105376,15.5728602 C6.37202151,17.0300645 7.20513978,17.864043 8.53567742,17.9098495 C9.84922581,17.9552258 10.8920215,17.1825376 11.0042796,15.7472688 C11.146,13.9397419 11.0384731,12.1128602 11.0384731,10.2186667 M19.6199785,18.2375914 C19.9513763,19.2003871 19.6173978,19.8135054 18.6475054,20.0969462 C17.7589032,20.3563011 16.8866452,20.7474839 15.9804086,20.8552258 C13.9158925,21.1008172 13.0447097,20.5676989 11.4638495,18.3367312 C10.0158925,20.3442581 8.02191398,21.1539355 5.60384946,21.0694194 C2.76449462,20.9698495 0.85288172,19.4517849 0.312236559,16.8049032 C-0.260666667,14.0018925 0.761913978,11.7646882 3.37266667,10.6431828 C5.27180645,9.82726882 7.28234409,9.26898925 9.24729032,8.60812903 C11.109871,7.98167742 11.3533118,7.71845161 11.2595484,6.34769892 C11.1408387,4.61070968 10.2328817,3.492 8.68191398,3.24103226 C6.54535484,2.89544086 4.63589247,3.41027957 2.98427957,4.82941935 C2.85352688,4.94167742 2.71266667,5.04167742 2.52643011,5.18619355 C2.28535484,4.35243011 2.06341935,3.58425806 1.8087957,2.7036129 C4.43202151,0.609204301 7.48664516,-0.213806452 10.8647097,0.159096774 C11.7782581,0.259956989 12.7012688,0.502967742 13.5597634,0.836086022 C15.9029892,1.74554839 17.1720215,3.5008172 17.1687957,6.02705376 C17.1649247,8.92769892 17.0466452,11.828129 16.9814839,14.7289892 C16.9718065,15.1586667 16.9709462,15.5889892 16.9814839,16.0186667 C17.0350323,18.1975914 17.5485806,18.6276989 19.6199785,18.2375914" fill="#990D15" mask="url(#mask-2)"></path>
      </g>
      <path d="M32.6530753,19.3756129 C33.9750108,23.7695914 35.2793118,28.1050753 36.5836129,32.4407742 C36.7029677,32.4569032 36.8223226,32.4732473 36.9416774,32.4893763 C38.3793118,28.1274409 39.8171613,23.7655054 41.2752258,19.3416344 L45.0397419,19.3416344 C42.8427527,25.1115269 40.6197419,30.9422796 38.4049032,36.775828 C38.1147957,37.5396989 38.0790968,38.6177634 37.5363011,39.0065806 C37.0033978,39.3883011 35.9737204,39.0805591 35.1623226,39.0685161 C34.2552258,39.0551828 33.1135054,39.3590538 32.5085591,38.9224946 C31.9300645,38.5050753 31.943828,37.3016344 31.6390968,36.4648602 C29.6967312,31.128086 27.7386667,25.7969032 25.7836129,20.4646452 C25.6631828,20.1362581 25.5242581,19.8147527 25.347914,19.3756129 L32.6530753,19.3756129 Z" fill="#990D15"></path>
      <mask id="mask-4" fill="white">
        <use xlink:href="#path-3"></use>
      </mask>
      <g></g>
      <polygon fill="#990D15" mask="url(#mask-4)" points="48.2455914 39.1301075 54.6058065 39.1301075 54.6058065 19.3462366 48.2455914 19.3462366"></polygon>
      <path d="M50.397828,16.4251398 C49.3092258,16.3094409 49.1894409,15.8214839 49.4255699,14.8806237 C50.354172,11.1773978 51.1750323,7.44707527 52.057828,3.73223656 C52.3849247,2.35567742 52.8453548,1.02019355 54.2518065,0.357612903 C55.5318065,-0.245612903 56.762129,-0.086688172 57.8479355,0.841913978 C58.9535269,1.78750538 59.1505161,3.00578495 58.7954624,4.35030108 C58.7146022,4.65653763 58.5905161,4.97223656 58.4083656,5.22815054 C55.7376129,8.9776129 53.0537419,12.7176129 50.397828,16.4251398" fill="#990D15" mask="url(#mask-4)"></path>
    </g>
  </g>
</svg>